<svg xmlns="http://www.w3.org/2000/svg" width="1724.948" height="711.002" viewBox="0 0 1724.948 711.002">
  <g id="Groupe_1" data-name="Groupe 1" transform="translate(-97.526 -184.499)">
    <g id="Rectangle_1" data-name="Rectangle 1" transform="matrix(0.996, -0.087, 0.087, 0.996, 943.407, 256.516)" fill="red" stroke="#fff" stroke-width="20">
      <rect width="826.307" height="641.426" rx="60" stroke="none"/>
      <rect x="10" y="10" width="806.307" height="621.426" rx="50" fill="none"/>
    </g>
    <path id="Tracé_2" data-name="Tracé 2" d="M78.171,0a118.574,118.574,0,0,1,97.3,49.245Q207.4,92.223,207.4,154.6q0,38.8-13.878,77.9a276.671,276.671,0,0,1-39.844,73.719q-40.292,53.424-88.045,73.719A28.656,28.656,0,0,1,49.071,390.83a27.141,27.141,0,0,1-19.549-2.238,27.626,27.626,0,0,1-13.58-14.326,28.532,28.532,0,0,1-1.045-19.7q-8.058-39.1-11.789-91.03T.124,162.062q.746-49.544,1.94-79.091T5.049,31.338a25.763,25.763,0,0,1,5.82-14.774A24.687,24.687,0,0,1,24.15,8.058Q40.864,0,78.171,0ZM61.756,323.229q36.71-23.578,65.213-70.734t28.5-97.894q0-45.366-21.787-74.614Q112.792,51.932,78.171,51.932a190.607,190.607,0,0,0-22.683,1.194Q45.042,220.56,61.756,323.229Zm317.857,2.388a24.949,24.949,0,0,1,19.251-5.074,25.215,25.215,0,0,1,17.161,10.148,24.466,24.466,0,0,1,4.925,19.25,25.774,25.774,0,0,1-10.3,17.161q-45.664,33.726-87.448,33.726-31.04.6-51.932-21.787a98.556,98.556,0,0,1-17.311-25.966q-7.163-15.221-10.744-36.561t-5.372-39.546q-1.791-18.206-1.492-47.6t1.045-47.156q.746-17.758,2.537-50.887,3.88-70.436,2.985-100.879a24.975,24.975,0,0,1,7.014-18.5A25.916,25.916,0,0,1,267.99,3.581a24.975,24.975,0,0,1,18.5,7.014,25.915,25.915,0,0,1,8.357,18.057q.9,32.532-2.985,105.356-2.089,39.1-2.835,62.825t-.149,58.05q.6,34.323,5.521,56.408t14.475,31.935A16.93,16.93,0,0,0,323.2,349.2Q347.977,349.2,379.613,325.617Z" transform="matrix(0.996, -0.087, 0.087, 0.996, 1166.025, 356.62)" fill="#fff"/>
    <path id="Tracé_1" data-name="Tracé 1" d="M285.74-113.44q18.206,18.8,22.534,73.57t-.746,157.735q-.3,6.268-.9,21.787t-.9,22.683a25.515,25.515,0,0,1-7.76,17.907A24.423,24.423,0,0,1,280.07,187.7h-.9a25.741,25.741,0,0,1-25.07-26.563q.3-9.849,1.492-45.366Q258.879,30.715,257.984-6,256.79-43,252.91-62.7q-9.849,15.221-21.489,44.47Q212.618,28.327,196.8,92.794a27.036,27.036,0,0,1-9.551,14.326,25.715,25.715,0,0,1-16.415,5.671,25.3,25.3,0,0,1-16.117-5.671A27.055,27.055,0,0,1,145.167,92.5q-4.477-20.3-8.357-64.168-3.283-33.726-4.775-44.47Q118.9,5.943,106.367,42.056,81,113.985,76.82,179.944a29.293,29.293,0,0,1-8.954,17.311,26.993,26.993,0,0,1-17.609,7.76,30.175,30.175,0,0,1-18.952-5.074,27.794,27.794,0,0,1-11.491-15.52q-7.163-50.439-8.8-154.452t4.029-139.827a25.176,25.176,0,0,1,10.446-16.714,25.338,25.338,0,0,1,19.1-4.775,24.443,24.443,0,0,1,16.863,10.3,25.472,25.472,0,0,1,4.925,19.25Q61.9-74.939,62.494,10.718,77.715-28.976,92.34-50.764q22.683-34.621,49.245-34.621,30.144,0,39.695,47.753a4.157,4.157,0,0,1,.3,1.791,4.157,4.157,0,0,0,.3,1.791q.9-1.791,2.835-7.014t3.134-7.909q17.012-39.993,33.875-58.348t36.263-18.355A36.394,36.394,0,0,1,285.74-113.44ZM411.092,162.335a25.07,25.07,0,0,1-3.283,19.549,24.8,24.8,0,0,1-16.117,11.491,25.07,25.07,0,0,1-19.549-3.283,24.8,24.8,0,0,1-11.491-16.117Q351.1,132.191,348.566,42.8t1.94-122.517a25.327,25.327,0,0,1,9.4-17.46,24.5,24.5,0,0,1,18.952-5.521,25.86,25.86,0,0,1,17.609,9.4,24.219,24.219,0,0,1,5.671,18.952q-4.178,29.249-1.791,114.458T411.092,162.335ZM371.4-122.1q-10.148,0-18.057-8.506a27.874,27.874,0,0,1-7.909-19.549,26.913,26.913,0,0,1,7.76-18.5,25.332,25.332,0,0,1,18.206-8.058,26.181,26.181,0,0,1,19.847,8.357q7.909,8.357,7.909,18.8,0,14.028-8.357,20.743A30.069,30.069,0,0,1,371.4-122.1Zm242.944-9.551q21.489,22.683,26.712,80.584t.746,170.718q-.3,6.268-.6,15.371t-.6,15.221q-.3,6.118-.3,10.3A24.526,24.526,0,0,1,632.7,178.75a25.268,25.268,0,0,1-18.355,7.461,24.771,24.771,0,0,1-18.206-7.461,25.127,25.127,0,0,1-7.461-18.5q0-8.058,1.194-42.679,3.582-88.343,1.791-132.217-2.388-59.393-12.535-77.9-18.206,13.431-36.113,67.153-25.369,75.211-33.726,182.656a27.053,27.053,0,0,1-9.1,16.863,26,26,0,0,1-17.758,6.715,27.693,27.693,0,0,1-18.206-6.417,25.6,25.6,0,0,1-9.252-16.564q-5.074-25.966-7.312-85.359T445.564-34.349q.149-47.455,1.045-75.51a26.176,26.176,0,0,1,8.208-18.057,24.491,24.491,0,0,1,18.355-7.014,24.6,24.6,0,0,1,18.057,8.208,25.465,25.465,0,0,1,7.014,18.654q-.9,22.384-.9,55.812,34.323-93.716,84.165-93.716Q601.508-145.972,614.342-131.646ZM745.663,162.335a25.07,25.07,0,0,1-3.283,19.549,24.8,24.8,0,0,1-16.117,11.491,25.071,25.071,0,0,1-19.549-3.283,24.8,24.8,0,0,1-11.491-16.117Q685.673,132.191,683.136,42.8t1.94-122.517a25.326,25.326,0,0,1,9.4-17.46A24.5,24.5,0,0,1,713.43-102.7a25.86,25.86,0,0,1,17.609,9.4,24.219,24.219,0,0,1,5.671,18.952q-4.178,29.249-1.791,114.458T745.663,162.335ZM705.969-122.1q-10.148,0-18.057-8.506A27.874,27.874,0,0,1,680-150.15a26.913,26.913,0,0,1,7.76-18.5,25.332,25.332,0,0,1,18.206-8.058,26.182,26.182,0,0,1,19.847,8.357q7.909,8.357,7.909,18.8,0,14.028-8.357,20.743A30.069,30.069,0,0,1,705.969-122.1ZM971.3,143.234a25.813,25.813,0,0,1,.3,20,24.38,24.38,0,0,1-13.729,14.326,25.451,25.451,0,0,1-19.847.3,24.4,24.4,0,0,1-14.177-13.729q-11.938-28.055-19.1-66.556-27.757,60.885-64.467,60.885-15.221,0-28.652-10.894t-22.981-30.89Q772.226,82.05,772.226,38.177a304.038,304.038,0,0,1,7.461-67.3q7.461-32.98,20.743-59.393t33.875-42.53q20.594-16.117,44.769-16.117,29.249,0,50.141,23.877a9.054,9.054,0,0,1,2.686.3,24.186,24.186,0,0,1,17.012,10.744,25.535,25.535,0,0,1,4.178,19.4q-4.178,23.877-5.521,63.124t4.178,89.985Q957.27,111,971.3,143.234ZM873.4,34A637.755,637.755,0,0,0,897.578-77.327q-9.252-17.907-18.5-17.907t-19.1,10.894q-9.849,10.894-17.758,28.652T829.231-12.86a256.645,256.645,0,0,0-5.074,51.036q0,22.683,5.372,39.993t11.64,25.667Q856.988,86.527,873.4,34Z" transform="translate(86.885 570.104)" fill="#fff"/>
  </g>
</svg>
